<svg width="72" height="80" viewBox="0 0 72 80" fill="none" xmlns="http://www.w3.org/2000/svg" xmlns:xlink="http://www.w3.org/1999/xlink">
<g>
<path d="M67.6514 16.9085L72.0104 75.1766L59.4299 70.3567L59.1445 16.908L67.6514 16.9085Z" fill="#C6823D"/>
<path d="M72.0093 75.1747L61.1431 79.994L59.4199 70.354L72.0093 75.1747Z" fill="#B37234"/>
<path d="M53.4403 17.9633C52.8064 17.9633 52.3534 17.4375 52.3534 16.9118L52.3529 13.8449C52.3518 7.44818 46.9169 2.19063 40.3054 2.19064C33.694 2.19064 28.2608 7.4482 28.2618 13.8449L28.2623 16.9118C28.2624 17.5252 27.7191 17.9633 27.1757 17.9633C26.5417 17.9633 26.0888 17.4375 26.0887 16.9118L26.0882 13.8449C26.087 6.22144 32.5163 -4.48169e-06 40.3956 -9.97335e-06C48.275 -1.5465e-05 54.7064 6.22142 54.7076 13.8449L54.7081 16.9118C54.6176 17.5252 54.0743 17.9633 53.4403 17.9633Z" fill="#B37234"/>
<path d="M61.1322 16.9099L0.00195312 16.9099L0.0122741 80L61.1425 80L61.1322 16.9099Z" fill="#DDA764"/>
<rect width="43.992" height="17.5" transform="matrix(1 0 3.29542e-05 1 11 33)" fill="url(#pattern0)" fill-opacity="0.8"/>
<path d="M17.3956 27.4251C18.8969 27.4252 20.1137 26.2489 20.1133 24.7979C20.113 23.3468 18.8956 22.1704 17.3942 22.1703C15.8929 22.1702 14.6761 23.3465 14.6765 24.7975C14.6769 26.2486 15.8943 27.425 17.3956 27.4251Z" fill="#C6823D"/>
<path d="M43.7511 27.4221C45.2524 27.4222 46.4692 26.246 46.4688 24.7949C46.4684 23.3439 45.251 22.1675 43.7497 22.1674C42.2483 22.1673 41.0316 23.3435 41.0319 24.7946C41.0323 26.2457 42.2497 27.422 43.7511 27.4221Z" fill="#C6823D"/>
<path d="M17.3959 24.448C16.762 24.448 16.309 23.9221 16.3089 23.3963L16.3064 13.932C16.3044 6.30789 22.7323 0.0863279 30.6107 0.0868063C38.4891 0.0872847 44.9203 6.30963 44.9223 13.9337L44.9248 23.3981C44.925 24.0115 44.3817 24.4496 43.8384 24.4496C43.295 24.4496 42.7516 23.9237 42.7514 23.3979L42.7489 13.9336C42.7472 7.53636 37.3124 2.27804 30.7018 2.27764C24.0912 2.27724 18.6592 7.5349 18.6609 13.9321L18.6634 23.3965C18.4824 24.0099 18.0298 24.448 17.3959 24.448Z" fill="#B37234"/>
</g>
</svg>
